<svg xmlns="http://www.w3.org/2000/svg" width="36.188" height="32" viewBox="0 0 36.188 32">
  <metadata><?xpacket begin="﻿" id="W5M0MpCehiHzreSzNTczkc9d"?>
<x:xmpmeta xmlns:x="adobe:ns:meta/" x:xmptk="Adobe XMP Core 5.6-c138 79.159824, 2016/09/14-01:09:01        ">
   <rdf:RDF xmlns:rdf="http://www.w3.org/1999/02/22-rdf-syntax-ns#">
      <rdf:Description rdf:about=""/>
   </rdf:RDF>
</x:xmpmeta>
                                                                                                    
                                                                                                    
                                                                                                    
                                                                                                    
                                                                                                    
                                                                                                    
                                                                                                    
                                                                                                    
                                                                                                    
                                                                                                    
                                                                                                    
                                                                                                    
                                                                                                    
                                                                                                    
                                                                                                    
                                                                                                    
                                                                                                    
                                                                                                    
                                                                                                    
                                                                                                    
                           
<?xpacket end="w"?></metadata>
<defs>
    <style>
      .cls-1 {
        fill: #715a33;
        fill-rule: evenodd;
      }
    </style>
  </defs>
  <path id="Form_31" data-name="Form 31" class="cls-1" d="M4.534,28.417v1.35H32.279v-1.35H4.534Zm29.945,0v2.466c0,0.036,0,.073-0.005.109a1.139,1.139,0,0,1-.042.215,1.117,1.117,0,0,1-.632.707,1.068,1.068,0,0,1-.313.08c-0.036,0-.072,0-0.108.006H3.434c-0.036,0-.072,0-0.108-0.006a1.036,1.036,0,0,1-.212-0.043,1.113,1.113,0,0,1-.7-0.64,1.136,1.136,0,0,1-.079-0.318c0-.036,0-0.073-0.005-0.109V28.417h-0.2c-0.039,0-.078,0-0.116-0.006a1.129,1.129,0,0,1-.227-0.049,1.115,1.115,0,0,1-.736-0.839c-0.008-.038-0.012-0.077-0.018-0.116L0.3,19.636c0-.042-0.005-0.083,0-0.124a1.119,1.119,0,0,1,.74-1.038,1.083,1.083,0,0,1,.238-0.054c0.04,0,.081,0,0.122-0.007H3.2a5.183,5.183,0,0,1-.179-0.721,8.143,8.143,0,0,1-.1-1.253,11.016,11.016,0,0,1,.045-1.364,9.3,9.3,0,0,1,.574-2.328A12.808,12.808,0,0,1,5.057,9.952,20.885,20.885,0,0,1,7.983,6.688c0.765-.7,1.569-1.365,2.4-1.992,0.934-.705,1.9-1.367,2.886-1.992q1.282-.81,2.611-1.54C16.541,0.8,17.213.447,17.9,0.121L17.942,0.1c0.034-.014.068-0.03,0.1-0.043A1.093,1.093,0,0,1,19.322.5a1.121,1.121,0,0,1,.139.307c0.021,0.072.031,0.144,0.045,0.218s0.019,0.1.038,0.187c0.027,0.12.054,0.239,0.084,0.357q0.166,0.653.389,1.289,0.168,0.477.369,0.94,0.141,0.325.3,0.642a9.389,9.389,0,0,0,2.725,3.407c0.172,0.127.351,0.246,0.534,0.356a12.007,12.007,0,0,0,2.065.949c0.737,0.271,1.487.506,2.231,0.758l0.412,0.143A12.443,12.443,0,0,1,31.327,11.3a6.116,6.116,0,0,1,1.2,1.017,5.16,5.16,0,0,1,.593.8,5.225,5.225,0,0,1,.329.655,5.95,5.95,0,0,1,.4,1.578,8.669,8.669,0,0,1,.052,1.076,12.257,12.257,0,0,1-.09,1.373q-0.037.307-.087,0.613h1.679c0.04,0,.081,0,0.122.007a1.083,1.083,0,0,1,.238.054,1.12,1.12,0,0,1,.709.792,1.106,1.106,0,0,1,.031.246c0,0.041,0,.082,0,0.124l-0.734,7.772c-0.006.038-.01,0.078-0.018,0.116a1.133,1.133,0,0,1-.07.224,1.116,1.116,0,0,1-.666.615,1.13,1.13,0,0,1-.227.049c-0.038,0-.077,0-0.115.006H34.479Zm-1.1-2.232h0.293l0.523-5.54H2.61q0.262,2.77.523,5.54H33.379ZM22.8,18.413h8.692q0.034-.186.065-0.373c0.038-.237.071-0.476,0.1-0.714,0.031-.3.048-0.61,0.051-0.915a6.13,6.13,0,0,0-.049-0.884,3.341,3.341,0,0,0-.4-1.225,2.943,2.943,0,0,0-.354-0.485,3.981,3.981,0,0,0-.833-0.688,8.628,8.628,0,0,0-1.491-.727c-0.81-.318-1.642-0.574-2.467-0.851L25.684,11.4c-0.395-.139-0.789-0.284-1.176-0.444a11.543,11.543,0,0,1-2.2-1.165,11.777,11.777,0,0,1-3.869-4.932q-0.211-.471-0.391-0.954c-0.137-.368-0.26-0.739-0.373-1.115l-0.018-.062Q15.928,3.64,14.276,4.7c-0.94.6-1.859,1.235-2.745,1.914-0.659.5-1.3,1.032-1.916,1.59Q9,8.754,8.431,9.35c-0.279.291-.549,0.591-0.809,0.9q-0.285.338-.551,0.692c-0.134.179-.264,0.361-0.389,0.547a8.4,8.4,0,0,0-1.558,4.069c-0.019.28-.016,0.561-0.011,0.842a4.212,4.212,0,0,0,.2,1.38,2.469,2.469,0,0,0,.243.485q0.05,0.076.1,0.148h5.289q-0.1-.156-0.191-0.317A7.351,7.351,0,0,1,10,16.272a6.5,6.5,0,0,1-.21-1.479,6.407,6.407,0,0,1,.066-1.08,6.638,6.638,0,0,1,.18-0.845A9.274,9.274,0,0,1,12.414,9c0.172-.177.349-0.349,0.53-0.517,0.218-.2.443-0.4,0.671-0.589l0.054-.042a1.272,1.272,0,0,1,.175-0.106,1.086,1.086,0,0,1,.793-0.06,1.124,1.124,0,0,1,.524,1.783,1.222,1.222,0,0,1-.093.1c-0.141.125-.287,0.245-0.428,0.369-0.2.184-.406,0.371-0.6,0.567q-0.234.238-.455,0.489c-0.1.117-.2,0.235-0.3,0.357A5.64,5.64,0,0,0,12,14.264a4.149,4.149,0,0,0-.008.641,4.323,4.323,0,0,0,.195,1.025,5.44,5.44,0,0,0,.651,1.345,6.7,6.7,0,0,0,.941,1.138H17.5a7,7,0,0,1-1.13-1.042,4.75,4.75,0,0,1-.9-1.535,4.085,4.085,0,0,1-.147-0.546,4.025,4.025,0,0,1-.075-0.775,4.391,4.391,0,0,1,.159-1.147,5.355,5.355,0,0,1,.365-0.957q0.052-.1.106-0.206a1.422,1.422,0,0,1,.157-0.242,1.09,1.09,0,0,1,1.7.025,1.131,1.131,0,0,1,.169,1.086,3.328,3.328,0,0,1-.164.332q-0.051.1-.095,0.21a2.589,2.589,0,0,0-.189.717,1.808,1.808,0,0,0,0,.356,2.532,2.532,0,0,0,.883,1.538c0.077,0.072.157,0.141,0.238,0.208,0.106,0.088.216,0.172,0.328,0.252,0.139,0.1.282,0.2,0.428,0.285,0.2,0.124.4,0.238,0.609,0.346q0.382,0.2.778,0.371,0.5,0.216,1.016.4c0.283,0.1.57,0.191,0.859,0.272C22.664,18.377,22.731,18.395,22.8,18.413Z" transform="translate(-0.313)"/>
</svg>
